# Blender v2.93.4 OBJ File: 'cisterna2.blend'
# www.blender.org
mtllib cisterna2.mtl
o Cube.009_Cube.001
v -6.500000 6.500000 25.500000
v -5.500000 6.500000 25.500000
v -6.500000 6.500000 24.500000
v -5.500000 6.500000 24.500000
v -6.500000 -6.500000 25.500000
v -5.500000 -6.500000 25.500000
v -6.500000 -6.500000 24.500000
v -5.500000 -6.500000 24.500000
vt 0.375000 0.000000
vt 0.625000 0.000000
vt 0.625000 0.250000
vt 0.375000 0.250000
vt 0.625000 0.500000
vt 0.375000 0.500000
vt 0.625000 0.750000
vt 0.375000 0.750000
vt 0.625000 1.000000
vt 0.375000 1.000000
vt 0.125000 0.500000
vt 0.125000 0.750000
vt 0.875000 0.500000
vt 0.875000 0.750000
vn 0.0000 1.0000 0.0000
vn 0.0000 0.0000 -1.0000
vn 0.0000 -1.0000 0.0000
vn 0.0000 0.0000 1.0000
vn -1.0000 0.0000 0.0000
vn 1.0000 -0.0000 0.0000
usemtl rossoScuro
s off
f 1/1/1 2/2/1 4/3/1 3/4/1
f 3/4/2 4/3/2 8/5/2 7/6/2
f 7/6/3 8/5/3 6/7/3 5/8/3
f 5/8/4 6/7/4 2/9/4 1/10/4
f 3/11/5 7/6/5 5/8/5 1/12/5
f 8/5/6 4/13/6 2/14/6 6/7/6
o Cube.010_Cube.015
v 5.500000 6.500000 -24.500000
v 6.500000 6.500000 -24.500000
v 5.500000 6.500000 -25.500000
v 6.500000 6.500000 -25.500000
v 5.500000 -6.500000 -24.500000
v 6.500000 -6.500000 -24.500000
v 5.500000 -6.500000 -25.500000
v 6.500000 -6.500000 -25.500000
vt 0.375000 0.000000
vt 0.625000 0.000000
vt 0.625000 0.250000
vt 0.375000 0.250000
vt 0.625000 0.500000
vt 0.375000 0.500000
vt 0.625000 0.750000
vt 0.375000 0.750000
vt 0.625000 1.000000
vt 0.375000 1.000000
vt 0.125000 0.500000
vt 0.125000 0.750000
vt 0.875000 0.500000
vt 0.875000 0.750000
vn 0.0000 1.0000 0.0000
vn 0.0000 0.0000 -1.0000
vn 0.0000 -1.0000 0.0000
vn 0.0000 0.0000 1.0000
vn -1.0000 0.0000 0.0000
vn 1.0000 -0.0000 0.0000
usemtl rossoScuro
s off
f 9/15/7 10/16/7 12/17/7 11/18/7
f 11/18/8 12/17/8 16/19/8 15/20/8
f 15/20/9 16/19/9 14/21/9 13/22/9
f 13/22/10 14/21/10 10/23/10 9/24/10
f 11/25/11 15/20/11 13/22/11 9/26/11
f 16/19/12 12/27/12 10/28/12 14/21/12
o Cube.011
v -6.500000 5.500000 25.500000
v -6.500000 6.500000 25.500000
v -6.500000 5.500000 24.500000
v -6.500000 6.500000 24.500000
v 6.500000 5.500000 25.500000
v 6.500000 6.500000 25.500000
v 6.500000 5.500000 24.500000
v 6.500000 6.500000 24.500000
vt 0.375000 0.000000
vt 0.625000 0.000000
vt 0.625000 0.250000
vt 0.375000 0.250000
vt 0.625000 0.500000
vt 0.375000 0.500000
vt 0.625000 0.750000
vt 0.375000 0.750000
vt 0.625000 1.000000
vt 0.375000 1.000000
vt 0.125000 0.500000
vt 0.125000 0.750000
vt 0.875000 0.500000
vt 0.875000 0.750000
vn -1.0000 0.0000 0.0000
vn 0.0000 0.0000 -1.0000
vn 1.0000 0.0000 0.0000
vn 0.0000 0.0000 1.0000
vn 0.0000 -1.0000 0.0000
vn 0.0000 1.0000 0.0000
usemtl rossoScuro
s off
f 17/29/13 18/30/13 20/31/13 19/32/13
f 19/32/14 20/31/14 24/33/14 23/34/14
f 23/34/15 24/33/15 22/35/15 21/36/15
f 21/36/16 22/35/16 18/37/16 17/38/16
f 19/39/17 23/34/17 21/36/17 17/40/17
f 24/33/18 20/41/18 18/42/18 22/35/18
o Cube.012_Cube.016
v -6.500000 -6.500000 -24.500000
v -6.500000 -5.500000 -24.500000
v -6.500000 -6.500000 -25.500000
v -6.500000 -5.500000 -25.500000
v 6.500000 -6.500000 -24.500000
v 6.500000 -5.500000 -24.500000
v 6.500000 -6.500000 -25.500000
v 6.500000 -5.500000 -25.500000
vt 0.375000 0.000000
vt 0.625000 0.000000
vt 0.625000 0.250000
vt 0.375000 0.250000
vt 0.625000 0.500000
vt 0.375000 0.500000
vt 0.625000 0.750000
vt 0.375000 0.750000
vt 0.625000 1.000000
vt 0.375000 1.000000
vt 0.125000 0.500000
vt 0.125000 0.750000
vt 0.875000 0.500000
vt 0.875000 0.750000
vn -1.0000 0.0000 0.0000
vn 0.0000 0.0000 -1.0000
vn 1.0000 0.0000 0.0000
vn 0.0000 0.0000 1.0000
vn 0.0000 -1.0000 0.0000
vn 0.0000 1.0000 0.0000
usemtl rossoScuro
s off
f 25/43/19 26/44/19 28/45/19 27/46/19
f 27/46/20 28/45/20 32/47/20 31/48/20
f 31/48/21 32/47/21 30/49/21 29/50/21
f 29/50/22 30/49/22 26/51/22 25/52/22
f 27/53/23 31/48/23 29/50/23 25/54/23
f 32/47/24 28/55/24 26/56/24 30/49/24
o Cube.013
v -6.500000 -6.500000 25.500000
v -6.500000 -5.500000 25.500000
v -6.500000 -6.500000 24.500000
v -6.500000 -5.500000 24.500000
v 6.500000 -6.500000 25.500000
v 6.500000 -5.500000 25.500000
v 6.500000 -6.500000 24.500000
v 6.500000 -5.500000 24.500000
vt 0.375000 0.000000
vt 0.625000 0.000000
vt 0.625000 0.250000
vt 0.375000 0.250000
vt 0.625000 0.500000
vt 0.375000 0.500000
vt 0.625000 0.750000
vt 0.375000 0.750000
vt 0.625000 1.000000
vt 0.375000 1.000000
vt 0.125000 0.500000
vt 0.125000 0.750000
vt 0.875000 0.500000
vt 0.875000 0.750000
vn -1.0000 0.0000 0.0000
vn 0.0000 0.0000 -1.0000
vn 1.0000 0.0000 0.0000
vn 0.0000 0.0000 1.0000
vn 0.0000 -1.0000 0.0000
vn 0.0000 1.0000 0.0000
usemtl rossoScuro
s off
f 33/57/25 34/58/25 36/59/25 35/60/25
f 35/60/26 36/59/26 40/61/26 39/62/26
f 39/62/27 40/61/27 38/63/27 37/64/27
f 37/64/28 38/63/28 34/65/28 33/66/28
f 35/67/29 39/62/29 37/64/29 33/68/29
f 40/61/30 36/69/30 34/70/30 38/63/30
o Cube.014
v 5.500000 6.500000 25.500000
v 6.500000 6.500000 25.500000
v 5.500000 6.500000 24.500000
v 6.500000 6.500000 24.500000
v 5.500000 -6.500000 25.500000
v 6.500000 -6.500000 25.500000
v 5.500000 -6.500000 24.500000
v 6.500000 -6.500000 24.500000
vt 0.375000 0.000000
vt 0.625000 0.000000
vt 0.625000 0.250000
vt 0.375000 0.250000
vt 0.625000 0.500000
vt 0.375000 0.500000
vt 0.625000 0.750000
vt 0.375000 0.750000
vt 0.625000 1.000000
vt 0.375000 1.000000
vt 0.125000 0.500000
vt 0.125000 0.750000
vt 0.875000 0.500000
vt 0.875000 0.750000
vn 0.0000 1.0000 0.0000
vn 0.0000 0.0000 -1.0000
vn 0.0000 -1.0000 0.0000
vn 0.0000 0.0000 1.0000
vn -1.0000 0.0000 0.0000
vn 1.0000 -0.0000 0.0000
usemtl rossoScuro
s off
f 41/71/31 42/72/31 44/73/31 43/74/31
f 43/74/32 44/73/32 48/75/32 47/76/32
f 47/76/33 48/75/33 46/77/33 45/78/33
f 45/78/34 46/77/34 42/79/34 41/80/34
f 43/81/35 47/76/35 45/78/35 41/82/35
f 48/75/36 44/83/36 42/84/36 46/77/36
o Cube.015_Cube.017
v -6.500000 5.500000 -24.500000
v -6.500000 6.500000 -24.500000
v -6.500000 5.500000 -25.500000
v -6.500000 6.500000 -25.500000
v 6.500000 5.500000 -24.500000
v 6.500000 6.500000 -24.500000
v 6.500000 5.500000 -25.500000
v 6.500000 6.500000 -25.500000
vt 0.375000 0.000000
vt 0.625000 0.000000
vt 0.625000 0.250000
vt 0.375000 0.250000
vt 0.625000 0.500000
vt 0.375000 0.500000
vt 0.625000 0.750000
vt 0.375000 0.750000
vt 0.625000 1.000000
vt 0.375000 1.000000
vt 0.125000 0.500000
vt 0.125000 0.750000
vt 0.875000 0.500000
vt 0.875000 0.750000
vn -1.0000 0.0000 0.0000
vn 0.0000 0.0000 -1.0000
vn 1.0000 0.0000 0.0000
vn 0.0000 0.0000 1.0000
vn 0.0000 -1.0000 0.0000
vn 0.0000 1.0000 0.0000
usemtl rossoScuro
s off
f 49/85/37 50/86/37 52/87/37 51/88/37
f 51/88/38 52/87/38 56/89/38 55/90/38
f 55/90/39 56/89/39 54/91/39 53/92/39
f 53/92/40 54/91/40 50/93/40 49/94/40
f 51/95/41 55/90/41 53/92/41 49/96/41
f 56/89/42 52/97/42 50/98/42 54/91/42
o Cube.016_Cube.018
v -6.500000 6.500000 -24.500000
v -5.500000 6.500000 -24.500000
v -6.500000 6.500000 -25.500000
v -5.500000 6.500000 -25.500000
v -6.500000 -6.500000 -24.500000
v -5.500000 -6.500000 -24.500000
v -6.500000 -6.500000 -25.500000
v -5.500000 -6.500000 -25.500000
vt 0.375000 0.000000
vt 0.625000 0.000000
vt 0.625000 0.250000
vt 0.375000 0.250000
vt 0.625000 0.500000
vt 0.375000 0.500000
vt 0.625000 0.750000
vt 0.375000 0.750000
vt 0.625000 1.000000
vt 0.375000 1.000000
vt 0.125000 0.500000
vt 0.125000 0.750000
vt 0.875000 0.500000
vt 0.875000 0.750000
vn 0.0000 1.0000 0.0000
vn 0.0000 0.0000 -1.0000
vn 0.0000 -1.0000 0.0000
vn 0.0000 0.0000 1.0000
vn -1.0000 0.0000 0.0000
vn 1.0000 -0.0000 0.0000
usemtl rossoScuro
s off
f 57/99/43 58/100/43 60/101/43 59/102/43
f 59/102/44 60/101/44 64/103/44 63/104/44
f 63/104/45 64/103/45 62/105/45 61/106/45
f 61/106/46 62/105/46 58/107/46 57/108/46
f 59/109/47 63/104/47 61/106/47 57/110/47
f 64/103/48 60/111/48 58/112/48 62/105/48
o Cube.017_Cube.019
v 6.500001 -6.500000 25.500000
v 6.500001 -5.500000 25.500000
v 5.500001 -6.500000 25.500000
v 5.500001 -5.500000 25.500000
v 6.499999 -6.500000 -25.500000
v 6.499999 -5.500000 -25.500000
v 5.499999 -6.500000 -25.500000
v 5.499999 -5.500000 -25.500000
vt 0.375000 0.000000
vt 0.625000 0.000000
vt 0.625000 0.250000
vt 0.375000 0.250000
vt 0.625000 0.500000
vt 0.375000 0.500000
vt 0.625000 0.750000
vt 0.375000 0.750000
vt 0.625000 1.000000
vt 0.375000 1.000000
vt 0.125000 0.500000
vt 0.125000 0.750000
vt 0.875000 0.500000
vt 0.875000 0.750000
vn 0.0000 0.0000 1.0000
vn -1.0000 0.0000 0.0000
vn 0.0000 0.0000 -1.0000
vn 1.0000 0.0000 -0.0000
vn 0.0000 -1.0000 0.0000
vn 0.0000 1.0000 0.0000
usemtl rossoScuro
s off
f 65/113/49 66/114/49 68/115/49 67/116/49
f 67/116/50 68/115/50 72/117/50 71/118/50
f 71/118/51 72/117/51 70/119/51 69/120/51
f 69/120/52 70/119/52 66/121/52 65/122/52
f 67/123/53 71/118/53 69/120/53 65/124/53
f 72/117/54 68/125/54 66/126/54 70/119/54
o Cube.018_Cube.020
v -5.499999 -6.500000 25.500000
v -5.499999 -5.500000 25.500000
v -6.499999 -6.500000 25.500000
v -6.499999 -5.500000 25.500000
v -5.500001 -6.500000 -25.500000
v -5.500001 -5.500000 -25.500000
v -6.500001 -6.500000 -25.500000
v -6.500001 -5.500000 -25.500000
vt 0.375000 0.000000
vt 0.625000 0.000000
vt 0.625000 0.250000
vt 0.375000 0.250000
vt 0.625000 0.500000
vt 0.375000 0.500000
vt 0.625000 0.750000
vt 0.375000 0.750000
vt 0.625000 1.000000
vt 0.375000 1.000000
vt 0.125000 0.500000
vt 0.125000 0.750000
vt 0.875000 0.500000
vt 0.875000 0.750000
vn 0.0000 0.0000 1.0000
vn -1.0000 0.0000 0.0000
vn 0.0000 0.0000 -1.0000
vn 1.0000 0.0000 -0.0000
vn 0.0000 -1.0000 0.0000
vn 0.0000 1.0000 0.0000
usemtl rossoScuro
s off
f 73/127/55 74/128/55 76/129/55 75/130/55
f 75/130/56 76/129/56 80/131/56 79/132/56
f 79/132/57 80/131/57 78/133/57 77/134/57
f 77/134/58 78/133/58 74/135/58 73/136/58
f 75/137/59 79/132/59 77/134/59 73/138/59
f 80/131/60 76/139/60 74/140/60 78/133/60
o Cube.019_Cube.021
v -5.499999 5.500000 25.500000
v -5.499999 6.500000 25.500000
v -6.499999 5.500000 25.500000
v -6.499999 6.500000 25.500000
v -5.500001 5.500000 -25.500000
v -5.500001 6.500000 -25.500000
v -6.500001 5.500000 -25.500000
v -6.500001 6.500000 -25.500000
vt 0.375000 0.000000
vt 0.625000 0.000000
vt 0.625000 0.250000
vt 0.375000 0.250000
vt 0.625000 0.500000
vt 0.375000 0.500000
vt 0.625000 0.750000
vt 0.375000 0.750000
vt 0.625000 1.000000
vt 0.375000 1.000000
vt 0.125000 0.500000
vt 0.125000 0.750000
vt 0.875000 0.500000
vt 0.875000 0.750000
vn 0.0000 0.0000 1.0000
vn -1.0000 0.0000 0.0000
vn 0.0000 0.0000 -1.0000
vn 1.0000 0.0000 -0.0000
vn 0.0000 -1.0000 0.0000
vn 0.0000 1.0000 0.0000
usemtl rossoScuro
s off
f 81/141/61 82/142/61 84/143/61 83/144/61
f 83/144/62 84/143/62 88/145/62 87/146/62
f 87/146/63 88/145/63 86/147/63 85/148/63
f 85/148/64 86/147/64 82/149/64 81/150/64
f 83/151/65 87/146/65 85/148/65 81/152/65
f 88/145/66 84/153/66 82/154/66 86/147/66
o Cube.020_Cube.022
v 6.500001 5.500000 25.500000
v 6.500001 6.500000 25.500000
v 5.500001 5.500000 25.500000
v 5.500001 6.500000 25.500000
v 6.499999 5.500000 -25.500000
v 6.499999 6.500000 -25.500000
v 5.499999 5.500000 -25.500000
v 5.499999 6.500000 -25.500000
vt 0.375000 0.000000
vt 0.625000 0.000000
vt 0.625000 0.250000
vt 0.375000 0.250000
vt 0.625000 0.500000
vt 0.375000 0.500000
vt 0.625000 0.750000
vt 0.375000 0.750000
vt 0.625000 1.000000
vt 0.375000 1.000000
vt 0.125000 0.500000
vt 0.125000 0.750000
vt 0.875000 0.500000
vt 0.875000 0.750000
vn 0.0000 0.0000 1.0000
vn -1.0000 0.0000 0.0000
vn 0.0000 0.0000 -1.0000
vn 1.0000 0.0000 -0.0000
vn 0.0000 -1.0000 0.0000
vn 0.0000 1.0000 0.0000
usemtl rossoScuro
s off
f 89/155/67 90/156/67 92/157/67 91/158/67
f 91/158/68 92/157/68 96/159/68 95/160/68
f 95/160/69 96/159/69 94/161/69 93/162/69
f 93/162/70 94/161/70 90/163/70 89/164/70
f 91/165/71 95/160/71 93/162/71 89/166/71
f 96/159/72 92/167/72 90/168/72 94/161/72
o Cylinder.019_Cylinder.010
v 0.000000 6.000001 -25.000000
v 0.000000 5.999999 25.000000
v 0.783157 5.948670 -25.000000
v 0.783157 5.948668 25.000000
v 1.552914 5.795556 -25.000000
v 1.552914 5.795554 25.000000
v 2.296101 5.543278 -25.000000
v 2.296101 5.543276 25.000000
v 3.000000 5.196153 -25.000000
v 3.000000 5.196151 25.000000
v 3.652569 4.760121 -25.000000
v 3.652569 4.760119 25.000000
v 4.242640 4.242642 -25.000000
v 4.242640 4.242640 25.000000
v 4.760120 3.652570 -25.000000
v 4.760120 3.652568 25.000000
v 5.196152 3.000002 -25.000000
v 5.196152 2.999999 25.000000
v 5.543277 2.296103 -25.000000
v 5.543277 2.296100 25.000000
v 5.795555 1.552916 -25.000000
v 5.795555 1.552914 25.000000
v 5.948669 0.783159 -25.000000
v 5.948669 0.783157 25.000000
v 6.000000 0.000002 -25.000000
v 6.000000 0.000000 25.000000
v 5.948669 -0.783155 -25.000000
v 5.948669 -0.783157 25.000000
v 5.795555 -1.552912 -25.000000
v 5.795555 -1.552914 25.000000
v 5.543278 -2.296098 -25.000000
v 5.543278 -2.296100 25.000000
v 5.196153 -2.999998 -25.000000
v 5.196153 -3.000000 25.000000
v 4.760120 -3.652566 -25.000000
v 4.760120 -3.652569 25.000000
v 4.242641 -4.242639 -25.000000
v 4.242641 -4.242640 25.000000
v 3.652570 -4.760118 -25.000000
v 3.652570 -4.760120 25.000000
v 3.000001 -5.196151 -25.000000
v 3.000001 -5.196153 25.000000
v 2.296102 -5.543275 -25.000000
v 2.296102 -5.543277 25.000000
v 1.552916 -5.795554 -25.000000
v 1.552916 -5.795556 25.000000
v 0.783159 -5.948668 -25.000000
v 0.783159 -5.948670 25.000000
v 0.000002 -5.999999 -25.000000
v 0.000002 -6.000001 25.000000
v -0.783155 -5.948668 -25.000000
v -0.783155 -5.948670 25.000000
v -1.552912 -5.795555 -25.000000
v -1.552912 -5.795557 25.000000
v -2.296098 -5.543277 -25.000000
v -2.296098 -5.543279 25.000000
v -2.999998 -5.196153 -25.000000
v -2.999998 -5.196155 25.000000
v -3.652566 -4.760121 -25.000000
v -3.652566 -4.760123 25.000000
v -4.242639 -4.242642 -25.000000
v -4.242639 -4.242644 25.000000
v -4.760118 -3.652570 -25.000000
v -4.760118 -3.652573 25.000000
v -5.196151 -3.000001 -25.000000
v -5.196151 -3.000003 25.000000
v -5.543277 -2.296100 -25.000000
v -5.543277 -2.296103 25.000000
v -5.795555 -1.552913 -25.000000
v -5.795555 -1.552915 25.000000
v -5.948669 -0.783154 -25.000000
v -5.948669 -0.783157 25.000000
v -6.000000 0.000004 -25.000000
v -6.000000 0.000002 25.000000
v -5.948668 0.783162 -25.000000
v -5.948668 0.783160 25.000000
v -5.795553 1.552921 -25.000000
v -5.795553 1.552919 25.000000
v -5.543274 2.296108 -25.000000
v -5.543274 2.296106 25.000000
v -5.196148 3.000008 -25.000000
v -5.196148 3.000005 25.000000
v -4.760115 3.652577 -25.000000
v -4.760115 3.652575 25.000000
v -4.242633 4.242649 -25.000000
v -4.242633 4.242647 25.000000
v -3.652559 4.760128 -25.000000
v -3.652559 4.760127 25.000000
v -2.999989 5.196160 -25.000000
v -2.999989 5.196158 25.000000
v -2.296087 5.543283 -25.000000
v -2.296087 5.543282 25.000000
v -1.552899 5.795560 -25.000000
v -1.552899 5.795558 25.000000
v -0.783140 5.948672 -25.000000
v -0.783140 5.948670 25.000000
vt 1.000000 0.500000
vt 1.000000 1.000000
vt 0.979167 1.000000
vt 0.979167 0.500000
vt 0.958333 1.000000
vt 0.958333 0.500000
vt 0.937500 1.000000
vt 0.937500 0.500000
vt 0.916667 1.000000
vt 0.916667 0.500000
vt 0.895833 1.000000
vt 0.895833 0.500000
vt 0.875000 1.000000
vt 0.875000 0.500000
vt 0.854167 1.000000
vt 0.854167 0.500000
vt 0.833333 1.000000
vt 0.833333 0.500000
vt 0.812500 1.000000
vt 0.812500 0.500000
vt 0.791667 1.000000
vt 0.791667 0.500000
vt 0.770834 1.000000
vt 0.770834 0.500000
vt 0.750000 1.000000
vt 0.750000 0.500000
vt 0.729167 1.000000
vt 0.729167 0.500000
vt 0.708334 1.000000
vt 0.708334 0.500000
vt 0.687500 1.000000
vt 0.687500 0.500000
vt 0.666667 1.000000
vt 0.666667 0.500000
vt 0.645834 1.000000
vt 0.645834 0.500000
vt 0.625000 1.000000
vt 0.625000 0.500000
vt 0.604167 1.000000
vt 0.604167 0.500000
vt 0.583334 1.000000
vt 0.583334 0.500000
vt 0.562500 1.000000
vt 0.562500 0.500000
vt 0.541667 1.000000
vt 0.541667 0.500000
vt 0.520834 1.000000
vt 0.520834 0.500000
vt 0.500000 1.000000
vt 0.500000 0.500000
vt 0.479167 1.000000
vt 0.479167 0.500000
vt 0.458334 1.000000
vt 0.458334 0.500000
vt 0.437500 1.000000
vt 0.437500 0.500000
vt 0.416667 1.000000
vt 0.416667 0.500000
vt 0.395834 1.000000
vt 0.395834 0.500000
vt 0.375000 1.000000
vt 0.375000 0.500000
vt 0.354167 1.000000
vt 0.354167 0.500000
vt 0.333334 1.000000
vt 0.333334 0.500000
vt 0.312500 1.000000
vt 0.312500 0.500000
vt 0.291667 1.000000
vt 0.291667 0.500000
vt 0.270834 1.000000
vt 0.270834 0.500000
vt 0.250000 1.000000
vt 0.250000 0.500000
vt 0.229167 1.000000
vt 0.229167 0.500000
vt 0.208334 1.000000
vt 0.208334 0.500000
vt 0.187500 1.000000
vt 0.187500 0.500000
vt 0.166667 1.000000
vt 0.166667 0.500000
vt 0.145834 1.000000
vt 0.145834 0.500000
vt 0.125000 1.000000
vt 0.125000 0.500000
vt 0.104167 1.000000
vt 0.104167 0.500000
vt 0.083334 1.000000
vt 0.083334 0.500000
vt 0.062500 1.000000
vt 0.062500 0.500000
vt 0.041667 1.000000
vt 0.041667 0.500000
vt 0.281326 0.487947
vt 0.250000 0.490000
vt 0.218674 0.487947
vt 0.187884 0.481822
vt 0.158157 0.471731
vt 0.130000 0.457846
vt 0.103898 0.440405
vt 0.080295 0.419706
vt 0.059595 0.396103
vt 0.042154 0.370000
vt 0.028269 0.341844
vt 0.018178 0.312117
vt 0.012053 0.281326
vt 0.010000 0.250000
vt 0.012053 0.218674
vt 0.018178 0.187883
vt 0.028269 0.158156
vt 0.042154 0.130000
vt 0.059595 0.103897
vt 0.080294 0.080294
vt 0.103897 0.059595
vt 0.130000 0.042154
vt 0.158156 0.028269
vt 0.187884 0.018178
vt 0.218674 0.012053
vt 0.250000 0.010000
vt 0.281326 0.012053
vt 0.312117 0.018178
vt 0.341844 0.028269
vt 0.370000 0.042154
vt 0.396103 0.059595
vt 0.419706 0.080294
vt 0.440405 0.103897
vt 0.457846 0.130000
vt 0.471731 0.158156
vt 0.481822 0.187883
vt 0.487947 0.218674
vt 0.490000 0.250000
vt 0.487947 0.281326
vt 0.481822 0.312117
vt 0.471731 0.341844
vt 0.457846 0.370000
vt 0.440405 0.396103
vt 0.419706 0.419706
vt 0.396103 0.440405
vt 0.370000 0.457846
vt 0.341844 0.471731
vt 0.312117 0.481822
vt 0.020834 1.000000
vt 0.020834 0.500000
vt 0.000000 1.000000
vt 0.000000 0.500000
vt 0.750000 0.490000
vt 0.781326 0.487947
vt 0.812117 0.481822
vt 0.841844 0.471731
vt 0.870000 0.457846
vt 0.896103 0.440405
vt 0.919706 0.419706
vt 0.940405 0.396103
vt 0.957846 0.370000
vt 0.971731 0.341844
vt 0.981822 0.312117
vt 0.987947 0.281326
vt 0.990000 0.250000
vt 0.987947 0.218674
vt 0.981822 0.187883
vt 0.971731 0.158156
vt 0.957846 0.130000
vt 0.940405 0.103897
vt 0.919706 0.080294
vt 0.896103 0.059595
vt 0.870000 0.042154
vt 0.841844 0.028269
vt 0.812117 0.018178
vt 0.781326 0.012053
vt 0.750000 0.010000
vt 0.718674 0.012053
vt 0.687884 0.018178
vt 0.658156 0.028269
vt 0.630000 0.042154
vt 0.603897 0.059595
vt 0.580294 0.080294
vt 0.559595 0.103897
vt 0.542154 0.130000
vt 0.528269 0.158156
vt 0.518178 0.187883
vt 0.512053 0.218674
vt 0.510000 0.250000
vt 0.512053 0.281326
vt 0.518178 0.312117
vt 0.528269 0.341844
vt 0.542154 0.370000
vt 0.559595 0.396103
vt 0.580295 0.419706
vt 0.603898 0.440405
vt 0.630000 0.457846
vt 0.658157 0.471731
vt 0.687884 0.481822
vt 0.718674 0.487947
vn 0.0654 0.9979 0.0000
vn 0.1951 0.9808 0.0000
vn 0.3214 0.9469 0.0000
vn 0.4423 0.8969 0.0000
vn 0.5556 0.8315 0.0000
vn 0.6593 0.7518 0.0000
vn 0.7518 0.6593 0.0000
vn 0.8315 0.5556 0.0000
vn 0.8969 0.4423 0.0000
vn 0.9469 0.3214 0.0000
vn 0.9808 0.1951 0.0000
vn 0.9979 0.0654 0.0000
vn 0.9979 -0.0654 -0.0000
vn 0.9808 -0.1951 -0.0000
vn 0.9469 -0.3214 -0.0000
vn 0.8969 -0.4423 -0.0000
vn 0.8315 -0.5556 -0.0000
vn 0.7518 -0.6593 -0.0000
vn 0.6593 -0.7518 -0.0000
vn 0.5556 -0.8315 -0.0000
vn 0.4423 -0.8969 -0.0000
vn 0.3214 -0.9469 -0.0000
vn 0.1951 -0.9808 -0.0000
vn 0.0654 -0.9979 -0.0000
vn -0.0654 -0.9979 -0.0000
vn -0.1951 -0.9808 -0.0000
vn -0.3214 -0.9469 -0.0000
vn -0.4423 -0.8969 -0.0000
vn -0.5556 -0.8315 -0.0000
vn -0.6593 -0.7518 -0.0000
vn -0.7518 -0.6593 -0.0000
vn -0.8315 -0.5556 -0.0000
vn -0.8969 -0.4423 -0.0000
vn -0.9469 -0.3214 -0.0000
vn -0.9808 -0.1951 -0.0000
vn -0.9979 -0.0654 -0.0000
vn -0.9979 0.0654 0.0000
vn -0.9808 0.1951 0.0000
vn -0.9469 0.3214 0.0000
vn -0.8969 0.4423 0.0000
vn -0.8315 0.5556 0.0000
vn -0.7518 0.6593 0.0000
vn -0.6593 0.7518 0.0000
vn -0.5556 0.8315 0.0000
vn -0.4423 0.8969 0.0000
vn -0.3214 0.9469 0.0000
vn 0.0000 0.0000 1.0000
vn -0.1951 0.9808 0.0000
vn -0.0654 0.9979 0.0000
vn 0.0000 0.0000 -1.0000
usemtl metal
s off
f 97/169/73 98/170/73 100/171/73 99/172/73
f 99/172/74 100/171/74 102/173/74 101/174/74
f 101/174/75 102/173/75 104/175/75 103/176/75
f 103/176/76 104/175/76 106/177/76 105/178/76
f 105/178/77 106/177/77 108/179/77 107/180/77
f 107/180/78 108/179/78 110/181/78 109/182/78
f 109/182/79 110/181/79 112/183/79 111/184/79
f 111/184/80 112/183/80 114/185/80 113/186/80
f 113/186/81 114/185/81 116/187/81 115/188/81
f 115/188/82 116/187/82 118/189/82 117/190/82
f 117/190/83 118/189/83 120/191/83 119/192/83
f 119/192/84 120/191/84 122/193/84 121/194/84
f 121/194/85 122/193/85 124/195/85 123/196/85
f 123/196/86 124/195/86 126/197/86 125/198/86
f 125/198/87 126/197/87 128/199/87 127/200/87
f 127/200/88 128/199/88 130/201/88 129/202/88
f 129/202/89 130/201/89 132/203/89 131/204/89
f 131/204/90 132/203/90 134/205/90 133/206/90
f 133/206/91 134/205/91 136/207/91 135/208/91
f 135/208/92 136/207/92 138/209/92 137/210/92
f 137/210/93 138/209/93 140/211/93 139/212/93
f 139/212/94 140/211/94 142/213/94 141/214/94
f 141/214/95 142/213/95 144/215/95 143/216/95
f 143/216/96 144/215/96 146/217/96 145/218/96
f 145/218/97 146/217/97 148/219/97 147/220/97
f 147/220/98 148/219/98 150/221/98 149/222/98
f 149/222/99 150/221/99 152/223/99 151/224/99
f 151/224/100 152/223/100 154/225/100 153/226/100
f 153/226/101 154/225/101 156/227/101 155/228/101
f 155/228/102 156/227/102 158/229/102 157/230/102
f 157/230/103 158/229/103 160/231/103 159/232/103
f 159/232/104 160/231/104 162/233/104 161/234/104
f 161/234/105 162/233/105 164/235/105 163/236/105
f 163/236/106 164/235/106 166/237/106 165/238/106
f 165/238/107 166/237/107 168/239/107 167/240/107
f 167/240/108 168/239/108 170/241/108 169/242/108
f 169/242/109 170/241/109 172/243/109 171/244/109
f 171/244/110 172/243/110 174/245/110 173/246/110
f 173/246/111 174/245/111 176/247/111 175/248/111
f 175/248/112 176/247/112 178/249/112 177/250/112
f 177/250/113 178/249/113 180/251/113 179/252/113
f 179/252/114 180/251/114 182/253/114 181/254/114
f 181/254/115 182/253/115 184/255/115 183/256/115
f 183/256/116 184/255/116 186/257/116 185/258/116
f 185/258/117 186/257/117 188/259/117 187/260/117
f 187/260/118 188/259/118 190/261/118 189/262/118
f 100/263/119 98/264/119 192/265/119 190/266/119 188/267/119 186/268/119 184/269/119 182/270/119 180/271/119 178/272/119 176/273/119 174/274/119 172/275/119 170/276/119 168/277/119 166/278/119 164/279/119 162/280/119 160/281/119 158/282/119 156/283/119 154/284/119 152/285/119 150/286/119 148/287/119 146/288/119 144/289/119 142/290/119 140/291/119 138/292/119 136/293/119 134/294/119 132/295/119 130/296/119 128/297/119 126/298/119 124/299/119 122/300/119 120/301/119 118/302/119 116/303/119 114/304/119 112/305/119 110/306/119 108/307/119 106/308/119 104/309/119 102/310/119
f 189/262/120 190/261/120 192/311/120 191/312/120
f 191/312/121 192/311/121 98/313/121 97/314/121
f 97/315/122 99/316/122 101/317/122 103/318/122 105/319/122 107/320/122 109/321/122 111/322/122 113/323/122 115/324/122 117/325/122 119/326/122 121/327/122 123/328/122 125/329/122 127/330/122 129/331/122 131/332/122 133/333/122 135/334/122 137/335/122 139/336/122 141/337/122 143/338/122 145/339/122 147/340/122 149/341/122 151/342/122 153/343/122 155/344/122 157/345/122 159/346/122 161/347/122 163/348/122 165/349/122 167/350/122 169/351/122 171/352/122 173/353/122 175/354/122 177/355/122 179/356/122 181/357/122 183/358/122 185/359/122 187/360/122 189/361/122 191/362/122
