# Blender v2.93.3 OBJ File: 'ground--as2meshes.blend'
# www.blender.org
mtllib ground.mtl
o Plane.006
v -80.000000 -0.800000 128.000000
v 80.000000 -0.800000 128.000000
v -80.000000 -0.800000 96.000000
v 80.000000 -0.800000 96.000000
v -80.000000 -0.800000 0.000000
v 80.000000 -0.800000 0.000000
v -80.000000 -0.800000 -32.000000
v 80.000000 -0.800000 -32.000000
v -80.000000 -0.800000 32.000000
v 80.000000 -0.800000 32.000000
v -80.000000 -0.800000 0.000000
v 80.000000 -0.800000 0.000000
v -80.000000 -0.800000 64.000000
v 80.000000 -0.800000 64.000000
v -80.000000 -0.800000 32.000000
v 80.000000 -0.800000 32.000000
v -80.000000 -0.800000 -32.000000
v 80.000000 -0.800000 -32.000000
v -80.000000 -0.800000 -64.000000
v 80.000000 -0.800000 -64.000000
v -80.000000 -0.800000 96.000000
v 80.000000 -0.800000 96.000000
v -80.000000 -0.800000 64.000000
v 80.000000 -0.800000 64.000000
v -80.000000 -0.800000 -64.000000
v 80.000000 -0.800000 -64.000000
v -80.000000 -0.800000 -96.000000
v 80.000000 -0.800000 -96.000000
v -80.000000 -0.800000 -96.000000
v 80.000000 -0.800000 -96.000000
v -80.000000 -0.800000 -128.000000
v 80.000000 -0.800000 -128.000000
vt -2.000000 0.000000
vt 3.000000 0.000000
vt 3.000000 1.000000
vt -2.000000 1.000000
vt -2.000000 0.000000
vt 3.000000 0.000000
vt 3.000000 1.000000
vt -2.000000 1.000000
vt -2.000000 0.000000
vt 3.000000 0.000000
vt 3.000000 1.000000
vt -2.000000 1.000000
vt -2.000000 0.000000
vt 3.000000 0.000000
vt 3.000000 1.000000
vt -2.000000 1.000000
vt -2.000000 0.000000
vt 3.000000 0.000000
vt 3.000000 1.000000
vt -2.000000 1.000000
vt -2.000000 0.000000
vt 3.000000 0.000000
vt 3.000000 1.000000
vt -2.000000 1.000000
vt -2.000000 0.000000
vt 3.000000 0.000000
vt 3.000000 1.000000
vt -2.000000 1.000000
vt -2.000000 0.000000
vt 3.000000 0.000000
vt 3.000000 1.000000
vt -2.000000 1.000000
vn 0.0000 1.0000 0.0000
usemtl gravel.006
s off
f 1/1/1 2/2/1 4/3/1 3/4/1
usemtl gravel
f 5/5/1 6/6/1 8/7/1 7/8/1
usemtl gravel.001
f 9/9/1 10/10/1 12/11/1 11/12/1
usemtl gravel.002
f 13/13/1 14/14/1 16/15/1 15/16/1
usemtl gravel.003
f 17/17/1 18/18/1 20/19/1 19/20/1
usemtl gravel.004
f 21/21/1 22/22/1 24/23/1 23/24/1
usemtl gravel.005
f 25/25/1 26/26/1 28/27/1 27/28/1
usemtl gravel.007
f 29/29/1 30/30/1 32/31/1 31/32/1
o Plane.011
v 336.000000 -0.800000 128.000000
v 592.000000 -0.800000 128.000000
v 336.000000 -0.800000 -128.000000
v 592.000000 -0.800000 -128.000000
v -336.000000 -0.800000 128.000000
v -80.000000 -0.800000 128.000000
v -336.000000 -0.800000 -128.000000
v -80.000000 -0.800000 -128.000000
v -592.000000 -0.800000 128.000000
v -336.000000 -0.800000 128.000000
v -592.000000 -0.800000 -128.000000
v -336.000000 -0.800000 -128.000000
v 80.000000 -0.800000 128.000000
v 336.000000 -0.800000 128.000000
v 80.000000 -0.800000 -128.000000
v 336.000000 -0.800000 -128.000000
vt 0.000000 0.000000
vt 1.000000 0.000000
vt 1.000000 1.000000
vt 0.000000 1.000000
vt 0.000000 0.000000
vt 1.000000 0.000000
vt 1.000000 1.000000
vt 0.000000 1.000000
vt 0.000000 0.000000
vt 1.000000 0.000000
vt 1.000000 1.000000
vt 0.000000 1.000000
vt 0.000000 0.000000
vt 1.000000 0.000000
vt 1.000000 1.000000
vt 0.000000 1.000000
vn 0.0000 1.0000 0.0000
usemtl campo
s off
f 33/33/2 34/34/2 36/35/2 35/36/2
f 37/37/2 38/38/2 40/39/2 39/40/2
f 41/41/2 42/42/2 44/43/2 43/44/2
f 45/45/2 46/46/2 48/47/2 47/48/2
