# Blender v2.93.5 OBJ File: 'ground.blend'
# www.blender.org
mtllib ground.mtl
o Plane
v -80.000000 -0.800000 0.000000
v 80.000000 -0.800000 0.000000
v -80.000000 -0.800000 -32.000000
v 80.000000 -0.800000 -32.000000
vt -2.000000 0.000000
vt 3.000000 0.000000
vt 3.000000 1.000000
vt -2.000000 1.000000
vn 0.0000 1.0000 0.0000
usemtl gravel
s off
f 1/1/1 2/2/1 4/3/1 3/4/1
o Plane.001
v -80.000000 -0.800000 32.000000
v 80.000000 -0.800000 32.000000
v -80.000000 -0.800000 0.000000
v 80.000000 -0.800000 0.000000
vt -2.000000 0.000000
vt 3.000000 0.000000
vt 3.000000 1.000000
vt -2.000000 1.000000
vn 0.0000 1.0000 0.0000
usemtl gravel
s off
f 5/5/2 6/6/2 8/7/2 7/8/2
o Plane.002
v -80.000000 -0.800000 64.000000
v 80.000000 -0.800000 64.000000
v -80.000000 -0.800000 32.000000
v 80.000000 -0.800000 32.000000
vt -2.000000 0.000000
vt 3.000000 0.000000
vt 3.000000 1.000000
vt -2.000000 1.000000
vn 0.0000 1.0000 0.0000
usemtl gravel
s off
f 9/9/3 10/10/3 12/11/3 11/12/3
o Plane.003
v -80.000000 -0.800000 -32.000000
v 80.000000 -0.800000 -32.000000
v -80.000000 -0.800000 -64.000000
v 80.000000 -0.800000 -64.000000
vt -2.000000 0.000000
vt 3.000000 0.000000
vt 3.000000 1.000000
vt -2.000000 1.000000
vn 0.0000 1.0000 0.0000
usemtl gravel
s off
f 13/13/4 14/14/4 16/15/4 15/16/4
o Plane.004
v -80.000000 -0.800000 96.000000
v 80.000000 -0.800000 96.000000
v -80.000000 -0.800000 64.000000
v 80.000000 -0.800000 64.000000
vt -2.000000 0.000000
vt 3.000000 0.000000
vt 3.000000 1.000000
vt -2.000000 1.000000
vn 0.0000 1.0000 0.0000
usemtl gravel
s off
f 17/17/5 18/18/5 20/19/5 19/20/5
o Plane.005
v -80.000000 -0.800000 -64.000000
v 80.000000 -0.800000 -64.000000
v -80.000000 -0.800000 -96.000000
v 80.000000 -0.800000 -96.000000
vt -2.000000 0.000000
vt 3.000000 0.000000
vt 3.000000 1.000000
vt -2.000000 1.000000
vn 0.0000 1.0000 0.0000
usemtl gravel
s off
f 21/21/6 22/22/6 24/23/6 23/24/6
o Plane.006
v -80.000000 -0.800000 128.000000
v 80.000000 -0.800000 128.000000
v -80.000000 -0.800000 96.000000
v 80.000000 -0.800000 96.000000
vt -2.000000 0.000000
vt 3.000000 0.000000
vt 3.000000 1.000000
vt -2.000000 1.000000
vn 0.0000 1.0000 0.0000
usemtl gravel
s off
f 25/25/7 26/26/7 28/27/7 27/28/7
o Plane.007
v -80.000000 -0.800000 -96.000000
v 80.000000 -0.800000 -96.000000
v -80.000000 -0.800000 -128.000000
v 80.000000 -0.800000 -128.000000
vt -2.000000 0.000000
vt 3.000000 0.000000
vt 3.000000 1.000000
vt -2.000000 1.000000
vn 0.0000 1.0000 0.0000
usemtl gravel
s off
f 29/29/8 30/30/8 32/31/8 31/32/8
o Plane.008
v -336.000000 -0.800000 128.000000
v -80.000000 -0.800000 128.000000
v -336.000000 -0.800000 -128.000000
v -80.000000 -0.800000 -128.000000
vt 0.000000 0.000000
vt 1.000000 0.000000
vt 1.000000 1.000000
vt 0.000000 1.000000
vn 0.0000 1.0000 0.0000
usemtl campo
s off
f 33/33/9 34/34/9 36/35/9 35/36/9
o Plane.009
v -592.000000 -0.800000 128.000000
v -336.000000 -0.800000 128.000000
v -592.000000 -0.800000 -128.000000
v -336.000000 -0.800000 -128.000000
vt 0.000000 0.000000
vt 1.000000 0.000000
vt 1.000000 1.000000
vt 0.000000 1.000000
vn 0.0000 1.0000 0.0000
usemtl campo
s off
f 37/37/10 38/38/10 40/39/10 39/40/10
o Plane.010
v 80.000000 -0.800000 128.000000
v 336.000000 -0.800000 128.000000
v 80.000000 -0.800000 -128.000000
v 336.000000 -0.800000 -128.000000
vt 0.000000 0.000000
vt 1.000000 0.000000
vt 1.000000 1.000000
vt 0.000000 1.000000
vn 0.0000 1.0000 0.0000
usemtl campo
s off
f 41/41/11 42/42/11 44/43/11 43/44/11
o Plane.011
v 336.000000 -0.800000 128.000000
v 592.000000 -0.800000 128.000000
v 336.000000 -0.800000 -128.000000
v 592.000000 -0.800000 -128.000000
vt 0.000000 0.000000
vt 1.000000 0.000000
vt 1.000000 1.000000
vt 0.000000 1.000000
vn 0.0000 1.0000 0.0000
usemtl campo
s off
f 45/45/12 46/46/12 48/47/12 47/48/12
o Plane.012
v 592.000000 -0.800000 128.000000
v 848.000000 -0.800000 128.000000
v 592.000000 -0.800000 -128.000000
v 848.000000 -0.800000 -128.000000
vt 0.000000 0.000000
vt 1.000000 0.000000
vt 1.000000 1.000000
vt 0.000000 1.000000
vn 0.0000 1.0000 0.0000
usemtl campo
s off
f 49/49/13 50/50/13 52/51/13 51/52/13
o Plane.013
v -848.000000 -0.800000 128.000000
v -592.000000 -0.800000 128.000000
v -848.000000 -0.800000 -128.000000
v -592.000000 -0.800000 -128.000000
vt 0.000000 0.000000
vt 1.000000 0.000000
vt 1.000000 1.000000
vt 0.000000 1.000000
vn 0.0000 1.0000 0.0000
usemtl campo
s off
f 53/53/14 54/54/14 56/55/14 55/56/14
o Plane.014
v -1104.000000 -0.800000 128.000000
v -848.000000 -0.800000 128.000000
v -1104.000000 -0.800000 -128.000000
v -848.000000 -0.800000 -128.000000
vt 0.000000 0.000000
vt 1.000000 0.000000
vt 1.000000 1.000000
vt 0.000000 1.000000
vn 0.0000 1.0000 0.0000
usemtl campo
s off
f 57/57/15 58/58/15 60/59/15 59/60/15
o Plane.015
v 848.000000 -0.800000 128.000000
v 1104.000000 -0.800000 128.000000
v 848.000000 -0.800000 -128.000000
v 1104.000000 -0.800000 -128.000000
vt 0.000000 0.000000
vt 1.000000 0.000000
vt 1.000000 1.000000
vt 0.000000 1.000000
vn 0.0000 1.0000 0.0000
usemtl campo
s off
f 61/61/16 62/62/16 64/63/16 63/64/16
