# Blender v2.92.0 OBJ File: 'ringhiera.blend'
# www.blender.org
mtllib ringhiera.mtl
o Cube_Cube.001
v -2.500000 -0.800000 16.000000
v -2.500000 0.200000 16.000000
v -2.500000 -0.800000 -16.000000
v -2.500000 0.200000 -16.000000
v 2.500000 -0.800000 16.000000
v 2.500000 0.200000 16.000000
v 2.500000 -0.800000 -16.000000
v 2.500000 0.200000 -16.000000
vt 0.375000 0.000000
vt 0.625000 0.000000
vt 0.625000 0.250000
vt 0.375000 0.250000
vt 0.625000 0.500000
vt 0.375000 0.500000
vt 0.625000 0.750000
vt 0.375000 0.750000
vt 0.625000 1.000000
vt 0.375000 1.000000
vt 0.125000 0.500000
vt 0.125000 0.750000
vt 0.875000 0.500000
vt 0.875000 0.750000
vn -1.0000 0.0000 0.0000
vn 0.0000 0.0000 -1.0000
vn 1.0000 0.0000 0.0000
vn 0.0000 0.0000 1.0000
vn 0.0000 -1.0000 0.0000
vn 0.0000 1.0000 0.0000
usemtl concrete
s off
f 1/1/1 2/2/1 4/3/1 3/4/1
f 3/4/2 4/3/2 8/5/2 7/6/2
f 7/6/3 8/5/3 6/7/3 5/8/3
f 5/8/4 6/7/4 2/9/4 1/10/4
f 3/11/5 7/6/5 5/8/5 1/12/5
f 8/5/6 4/13/6 2/14/6 6/7/6
o Cube.008_Cube.013
v 0.000000 -0.700000 -5.823223
v 0.000000 9.299999 -5.823223
v -0.176777 -0.700000 -6.000000
v -0.176777 9.299999 -6.000000
v 0.176777 -0.700000 -6.000000
v 0.176777 9.299999 -6.000000
v 0.000000 -0.700000 -6.176776
v 0.000000 9.299999 -6.176776
v 0.000000 -0.699999 2.176777
v 0.000000 9.299999 2.176777
v -0.176777 -0.699999 2.000000
v -0.176777 9.299999 2.000000
v 0.176777 -0.699999 2.000000
v 0.176777 9.299999 2.000000
v 0.000000 -0.699999 1.823224
v 0.000000 9.299999 1.823224
v 0.000000 -0.699999 0.176777
v 0.000000 9.299999 0.176777
v -0.176777 -0.699999 0.000000
v -0.176777 9.299999 0.000000
v 0.176777 -0.699999 0.000000
v 0.176777 9.299999 0.000000
v 0.000000 -0.699999 -0.176776
v 0.000000 9.299999 -0.176776
v 0.000000 -0.699999 4.176777
v 0.000000 9.299999 4.176777
v -0.176777 -0.699999 4.000001
v -0.176777 9.299999 4.000001
v 0.176777 -0.699999 4.000001
v 0.176777 9.299999 4.000001
v 0.000000 -0.699999 3.823224
v 0.000000 9.299999 3.823224
v 0.000000 -0.699999 -1.823223
v 0.000000 9.299999 -1.823223
v -0.176777 -0.699999 -2.000000
v -0.176777 9.299999 -2.000000
v 0.176777 -0.699999 -2.000000
v 0.176777 9.299999 -2.000000
v 0.000000 -0.699999 -2.176776
v 0.000000 9.299999 -2.176776
v 0.000000 -0.699999 8.176778
v 0.000000 9.299999 8.176778
v -0.176776 -0.699999 8.000002
v -0.176776 9.299999 8.000002
v 0.176776 -0.699999 8.000002
v 0.176776 9.299999 8.000002
v 0.000000 -0.699999 7.823225
v 0.000000 9.299999 7.823225
v 0.000000 -0.699999 6.176777
v 0.000000 9.299999 6.176777
v -0.176777 -0.699999 6.000001
v -0.176777 9.299999 6.000001
v 0.176777 -0.699999 6.000001
v 0.176777 9.299999 6.000001
v 0.000000 -0.699999 5.823224
v 0.000000 9.299999 5.823224
v 0.000000 -0.699999 -3.823223
v 0.000000 9.299999 -3.823223
v -0.176777 -0.699999 -4.000000
v -0.176777 9.299999 -4.000000
v 0.176777 -0.699999 -4.000000
v 0.176777 9.299999 -4.000000
v 0.000000 -0.699999 -4.176776
v 0.000000 9.299999 -4.176776
v 0.000000 -0.699999 10.176778
v 0.000000 9.299999 10.176778
v -0.176777 -0.699999 10.000001
v -0.176777 9.299999 10.000001
v 0.176777 -0.699999 10.000001
v 0.176777 9.299999 10.000001
v 0.000000 -0.699999 9.823224
v 0.000000 9.299999 9.823224
v 0.000000 -0.699999 -7.823223
v 0.000000 9.299999 -7.823223
v -0.176777 -0.699999 -8.000000
v -0.176777 9.299999 -8.000000
v 0.176777 -0.699999 -8.000000
v 0.176777 9.299999 -8.000000
v 0.000000 -0.699999 -8.176777
v 0.000000 9.299999 -8.176777
v 0.000000 -0.699999 12.176777
v 0.000000 9.299999 12.176777
v -0.176776 -0.699999 12.000000
v -0.176776 9.299999 12.000000
v 0.176776 -0.699999 12.000000
v 0.176776 9.299999 12.000000
v 0.000000 -0.699999 11.823224
v 0.000000 9.299999 11.823224
v 0.000000 -0.699999 -9.823223
v 0.000000 9.299999 -9.823223
v -0.176777 -0.699999 -10.000000
v -0.176777 9.299999 -10.000000
v 0.176777 -0.699999 -10.000000
v 0.176777 9.299999 -10.000000
v 0.000000 -0.699999 -10.176777
v 0.000000 9.299999 -10.176777
v 0.000000 -0.699999 14.176779
v 0.000000 9.299999 14.176779
v -0.176776 -0.699999 14.000002
v -0.176776 9.299999 14.000002
v 0.176776 -0.699999 14.000002
v 0.176776 9.299999 14.000002
v 0.000000 -0.699999 13.823226
v 0.000000 9.299999 13.823226
v 0.000000 -0.699999 -11.823224
v 0.000000 9.299999 -11.823224
v -0.176777 -0.699999 -12.000001
v -0.176777 9.299999 -12.000001
v 0.176777 -0.699999 -12.000001
v 0.176777 9.299999 -12.000001
v 0.000000 -0.699999 -12.176778
v 0.000000 9.299999 -12.176778
v 0.000000 -0.699999 16.176779
v 0.000000 9.299999 16.176779
v -0.176777 -0.699999 16.000002
v -0.176777 9.299999 16.000002
v 0.176777 -0.699999 16.000002
v 0.176777 9.299999 16.000002
v 0.000000 -0.699999 15.823225
v 0.000000 9.299999 15.823225
v 0.000000 -0.699999 -13.823223
v 0.000000 9.299999 -13.823223
v -0.176777 -0.699999 -14.000000
v -0.176777 9.299999 -14.000000
v 0.176777 -0.699999 -14.000000
v 0.176777 9.299999 -14.000000
v 0.000000 -0.699999 -14.176777
v 0.000000 9.299999 -14.176777
v 0.000000 -0.699999 -15.823223
v 0.000000 9.299999 -15.823223
v -0.176777 -0.699999 -16.000000
v -0.176777 9.299999 -16.000000
v 0.176777 -0.699999 -16.000000
v 0.176777 9.299999 -16.000000
v 0.000000 -0.699999 -16.176777
v 0.000000 9.299999 -16.176777
v -0.125000 7.875001 -16.000000
v -0.125000 7.874999 16.000002
v -0.125000 8.125001 -16.000000
v -0.125000 8.124999 16.000002
v 0.125000 7.875001 -16.000000
v 0.125000 7.874999 16.000002
v 0.125000 8.125001 -16.000000
v 0.125000 8.124999 16.000002
v -0.125000 1.875001 -16.000000
v -0.125000 1.875000 16.000002
v -0.125000 2.125001 -16.000000
v -0.125000 2.124999 16.000002
v 0.125000 1.875001 -16.000000
v 0.125000 1.875000 16.000002
v 0.125000 2.125001 -16.000000
v 0.125000 2.124999 16.000002
vt 0.375000 0.000000
vt 0.625000 0.000000
vt 0.625000 0.250000
vt 0.375000 0.250000
vt 0.625000 0.500000
vt 0.375000 0.500000
vt 0.625000 0.750000
vt 0.375000 0.750000
vt 0.625000 1.000000
vt 0.375000 1.000000
vt 0.125000 0.500000
vt 0.125000 0.750000
vt 0.875000 0.500000
vt 0.875000 0.750000
vt 0.375000 0.000000
vt 0.625000 0.000000
vt 0.625000 0.250000
vt 0.375000 0.250000
vt 0.625000 0.500000
vt 0.375000 0.500000
vt 0.625000 0.750000
vt 0.375000 0.750000
vt 0.625000 1.000000
vt 0.375000 1.000000
vt 0.125000 0.500000
vt 0.125000 0.750000
vt 0.875000 0.500000
vt 0.875000 0.750000
vt 0.375000 0.000000
vt 0.625000 0.000000
vt 0.625000 0.250000
vt 0.375000 0.250000
vt 0.625000 0.500000
vt 0.375000 0.500000
vt 0.625000 0.750000
vt 0.375000 0.750000
vt 0.625000 1.000000
vt 0.375000 1.000000
vt 0.125000 0.500000
vt 0.125000 0.750000
vt 0.875000 0.500000
vt 0.875000 0.750000
vt 0.375000 0.000000
vt 0.625000 0.000000
vt 0.625000 0.250000
vt 0.375000 0.250000
vt 0.625000 0.500000
vt 0.375000 0.500000
vt 0.625000 0.750000
vt 0.375000 0.750000
vt 0.625000 1.000000
vt 0.375000 1.000000
vt 0.125000 0.500000
vt 0.125000 0.750000
vt 0.875000 0.500000
vt 0.875000 0.750000
vt 0.375000 0.000000
vt 0.625000 0.000000
vt 0.625000 0.250000
vt 0.375000 0.250000
vt 0.625000 0.500000
vt 0.375000 0.500000
vt 0.625000 0.750000
vt 0.375000 0.750000
vt 0.625000 1.000000
vt 0.375000 1.000000
vt 0.125000 0.500000
vt 0.125000 0.750000
vt 0.875000 0.500000
vt 0.875000 0.750000
vt 0.375000 0.000000
vt 0.625000 0.000000
vt 0.625000 0.250000
vt 0.375000 0.250000
vt 0.625000 0.500000
vt 0.375000 0.500000
vt 0.625000 0.750000
vt 0.375000 0.750000
vt 0.625000 1.000000
vt 0.375000 1.000000
vt 0.125000 0.500000
vt 0.125000 0.750000
vt 0.875000 0.500000
vt 0.875000 0.750000
vt 0.375000 0.000000
vt 0.625000 0.000000
vt 0.625000 0.250000
vt 0.375000 0.250000
vt 0.625000 0.500000
vt 0.375000 0.500000
vt 0.625000 0.750000
vt 0.375000 0.750000
vt 0.625000 1.000000
vt 0.375000 1.000000
vt 0.125000 0.500000
vt 0.125000 0.750000
vt 0.875000 0.500000
vt 0.875000 0.750000
vt 0.375000 0.000000
vt 0.625000 0.000000
vt 0.625000 0.250000
vt 0.375000 0.250000
vt 0.625000 0.500000
vt 0.375000 0.500000
vt 0.625000 0.750000
vt 0.375000 0.750000
vt 0.625000 1.000000
vt 0.375000 1.000000
vt 0.125000 0.500000
vt 0.125000 0.750000
vt 0.875000 0.500000
vt 0.875000 0.750000
vt 0.375000 0.000000
vt 0.625000 0.000000
vt 0.625000 0.250000
vt 0.375000 0.250000
vt 0.625000 0.500000
vt 0.375000 0.500000
vt 0.625000 0.750000
vt 0.375000 0.750000
vt 0.625000 1.000000
vt 0.375000 1.000000
vt 0.125000 0.500000
vt 0.125000 0.750000
vt 0.875000 0.500000
vt 0.875000 0.750000
vt 0.375000 0.000000
vt 0.625000 0.000000
vt 0.625000 0.250000
vt 0.375000 0.250000
vt 0.625000 0.500000
vt 0.375000 0.500000
vt 0.625000 0.750000
vt 0.375000 0.750000
vt 0.625000 1.000000
vt 0.375000 1.000000
vt 0.125000 0.500000
vt 0.125000 0.750000
vt 0.875000 0.500000
vt 0.875000 0.750000
vt 0.375000 0.000000
vt 0.625000 0.000000
vt 0.625000 0.250000
vt 0.375000 0.250000
vt 0.625000 0.500000
vt 0.375000 0.500000
vt 0.625000 0.750000
vt 0.375000 0.750000
vt 0.625000 1.000000
vt 0.375000 1.000000
vt 0.125000 0.500000
vt 0.125000 0.750000
vt 0.875000 0.500000
vt 0.875000 0.750000
vt 0.375000 0.000000
vt 0.625000 0.000000
vt 0.625000 0.250000
vt 0.375000 0.250000
vt 0.625000 0.500000
vt 0.375000 0.500000
vt 0.625000 0.750000
vt 0.375000 0.750000
vt 0.625000 1.000000
vt 0.375000 1.000000
vt 0.125000 0.500000
vt 0.125000 0.750000
vt 0.875000 0.500000
vt 0.875000 0.750000
vt 0.375000 0.000000
vt 0.625000 0.000000
vt 0.625000 0.250000
vt 0.375000 0.250000
vt 0.625000 0.500000
vt 0.375000 0.500000
vt 0.625000 0.750000
vt 0.375000 0.750000
vt 0.625000 1.000000
vt 0.375000 1.000000
vt 0.125000 0.500000
vt 0.125000 0.750000
vt 0.875000 0.500000
vt 0.875000 0.750000
vt 0.375000 0.000000
vt 0.625000 0.000000
vt 0.625000 0.250000
vt 0.375000 0.250000
vt 0.625000 0.500000
vt 0.375000 0.500000
vt 0.625000 0.750000
vt 0.375000 0.750000
vt 0.625000 1.000000
vt 0.375000 1.000000
vt 0.125000 0.500000
vt 0.125000 0.750000
vt 0.875000 0.500000
vt 0.875000 0.750000
vt 0.375000 0.000000
vt 0.625000 0.000000
vt 0.625000 0.250000
vt 0.375000 0.250000
vt 0.625000 0.500000
vt 0.375000 0.500000
vt 0.625000 0.750000
vt 0.375000 0.750000
vt 0.625000 1.000000
vt 0.375000 1.000000
vt 0.125000 0.500000
vt 0.125000 0.750000
vt 0.875000 0.500000
vt 0.875000 0.750000
vt 0.375000 0.000000
vt 0.625000 0.000000
vt 0.625000 0.250000
vt 0.375000 0.250000
vt 0.625000 0.500000
vt 0.375000 0.500000
vt 0.625000 0.750000
vt 0.375000 0.750000
vt 0.625000 1.000000
vt 0.375000 1.000000
vt 0.125000 0.500000
vt 0.125000 0.750000
vt 0.875000 0.500000
vt 0.875000 0.750000
vt 0.375000 0.000000
vt 0.625000 0.000000
vt 0.625000 0.250000
vt 0.375000 0.250000
vt 0.625000 0.500000
vt 0.375000 0.500000
vt 0.625000 0.750000
vt 0.375000 0.750000
vt 0.625000 1.000000
vt 0.375000 1.000000
vt 0.125000 0.500000
vt 0.125000 0.750000
vt 0.875000 0.500000
vt 0.875000 0.750000
vt 0.375000 0.000000
vt 0.625000 0.000000
vt 0.625000 0.250000
vt 0.375000 0.250000
vt 0.625000 0.500000
vt 0.375000 0.500000
vt 0.625000 0.750000
vt 0.375000 0.750000
vt 0.625000 1.000000
vt 0.375000 1.000000
vt 0.125000 0.500000
vt 0.125000 0.750000
vt 0.875000 0.500000
vt 0.875000 0.750000
vt 0.375000 0.000000
vt 0.625000 0.000000
vt 0.625000 0.250000
vt 0.375000 0.250000
vt 0.625000 0.500000
vt 0.375000 0.500000
vt 0.625000 0.750000
vt 0.375000 0.750000
vt 0.625000 1.000000
vt 0.375000 1.000000
vt 0.125000 0.500000
vt 0.125000 0.750000
vt 0.875000 0.500000
vt 0.875000 0.750000
vn -0.7071 0.0000 0.7071
vn -0.7071 0.0000 -0.7071
vn 0.7071 0.0000 -0.7071
vn 0.7071 0.0000 0.7071
vn 0.0000 -1.0000 0.0000
vn 0.0000 1.0000 0.0000
vn -1.0000 0.0000 0.0000
vn 1.0000 0.0000 0.0000
vn 0.0000 0.0000 -1.0000
vn 0.0000 0.0000 1.0000
usemtl rusted-steel
s off
f 9/15/7 10/16/7 12/17/7 11/18/7
f 11/18/8 12/17/8 16/19/8 15/20/8
f 15/20/9 16/19/9 14/21/9 13/22/9
f 13/22/10 14/21/10 10/23/10 9/24/10
f 11/25/11 15/20/11 13/22/11 9/26/11
f 16/19/12 12/27/12 10/28/12 14/21/12
f 17/29/7 18/30/7 20/31/7 19/32/7
f 19/32/8 20/31/8 24/33/8 23/34/8
f 23/34/9 24/33/9 22/35/9 21/36/9
f 21/36/10 22/35/10 18/37/10 17/38/10
f 19/39/11 23/34/11 21/36/11 17/40/11
f 24/33/12 20/41/12 18/42/12 22/35/12
f 25/43/7 26/44/7 28/45/7 27/46/7
f 27/46/8 28/45/8 32/47/8 31/48/8
f 31/48/9 32/47/9 30/49/9 29/50/9
f 29/50/10 30/49/10 26/51/10 25/52/10
f 27/53/11 31/48/11 29/50/11 25/54/11
f 32/47/12 28/55/12 26/56/12 30/49/12
f 33/57/7 34/58/7 36/59/7 35/60/7
f 35/60/8 36/59/8 40/61/8 39/62/8
f 39/62/9 40/61/9 38/63/9 37/64/9
f 37/64/10 38/63/10 34/65/10 33/66/10
f 35/67/11 39/62/11 37/64/11 33/68/11
f 40/61/12 36/69/12 34/70/12 38/63/12
f 41/71/7 42/72/7 44/73/7 43/74/7
f 43/74/8 44/73/8 48/75/8 47/76/8
f 47/76/9 48/75/9 46/77/9 45/78/9
f 45/78/10 46/77/10 42/79/10 41/80/10
f 43/81/11 47/76/11 45/78/11 41/82/11
f 48/75/12 44/83/12 42/84/12 46/77/12
f 49/85/7 50/86/7 52/87/7 51/88/7
f 51/88/8 52/87/8 56/89/8 55/90/8
f 55/90/9 56/89/9 54/91/9 53/92/9
f 53/92/10 54/91/10 50/93/10 49/94/10
f 51/95/11 55/90/11 53/92/11 49/96/11
f 56/89/12 52/97/12 50/98/12 54/91/12
f 57/99/7 58/100/7 60/101/7 59/102/7
f 59/102/8 60/101/8 64/103/8 63/104/8
f 63/104/9 64/103/9 62/105/9 61/106/9
f 61/106/10 62/105/10 58/107/10 57/108/10
f 59/109/11 63/104/11 61/106/11 57/110/11
f 64/103/12 60/111/12 58/112/12 62/105/12
f 65/113/7 66/114/7 68/115/7 67/116/7
f 67/116/8 68/115/8 72/117/8 71/118/8
f 71/118/9 72/117/9 70/119/9 69/120/9
f 69/120/10 70/119/10 66/121/10 65/122/10
f 67/123/11 71/118/11 69/120/11 65/124/11
f 72/117/12 68/125/12 66/126/12 70/119/12
f 73/127/7 74/128/7 76/129/7 75/130/7
f 75/130/8 76/129/8 80/131/8 79/132/8
f 79/132/9 80/131/9 78/133/9 77/134/9
f 77/134/10 78/133/10 74/135/10 73/136/10
f 75/137/11 79/132/11 77/134/11 73/138/11
f 80/131/12 76/139/12 74/140/12 78/133/12
f 81/141/7 82/142/7 84/143/7 83/144/7
f 83/144/8 84/143/8 88/145/8 87/146/8
f 87/146/9 88/145/9 86/147/9 85/148/9
f 85/148/10 86/147/10 82/149/10 81/150/10
f 83/151/11 87/146/11 85/148/11 81/152/11
f 88/145/12 84/153/12 82/154/12 86/147/12
f 89/155/7 90/156/7 92/157/7 91/158/7
f 91/158/8 92/157/8 96/159/8 95/160/8
f 95/160/9 96/159/9 94/161/9 93/162/9
f 93/162/10 94/161/10 90/163/10 89/164/10
f 91/165/11 95/160/11 93/162/11 89/166/11
f 96/159/12 92/167/12 90/168/12 94/161/12
f 97/169/7 98/170/7 100/171/7 99/172/7
f 99/172/8 100/171/8 104/173/8 103/174/8
f 103/174/9 104/173/9 102/175/9 101/176/9
f 101/176/10 102/175/10 98/177/10 97/178/10
f 99/179/11 103/174/11 101/176/11 97/180/11
f 104/173/12 100/181/12 98/182/12 102/175/12
f 105/183/7 106/184/7 108/185/7 107/186/7
f 107/186/8 108/185/8 112/187/8 111/188/8
f 111/188/9 112/187/9 110/189/9 109/190/9
f 109/190/10 110/189/10 106/191/10 105/192/10
f 107/193/11 111/188/11 109/190/11 105/194/11
f 112/187/12 108/195/12 106/196/12 110/189/12
f 113/197/7 114/198/7 116/199/7 115/200/7
f 115/200/8 116/199/8 120/201/8 119/202/8
f 119/202/9 120/201/9 118/203/9 117/204/9
f 117/204/10 118/203/10 114/205/10 113/206/10
f 115/207/11 119/202/11 117/204/11 113/208/11
f 120/201/12 116/209/12 114/210/12 118/203/12
f 121/211/7 122/212/7 124/213/7 123/214/7
f 123/214/8 124/213/8 128/215/8 127/216/8
f 127/216/9 128/215/9 126/217/9 125/218/9
f 125/218/10 126/217/10 122/219/10 121/220/10
f 123/221/11 127/216/11 125/218/11 121/222/11
f 128/215/12 124/223/12 122/224/12 126/217/12
f 129/225/7 130/226/7 132/227/7 131/228/7
f 131/228/8 132/227/8 136/229/8 135/230/8
f 135/230/9 136/229/9 134/231/9 133/232/9
f 133/232/10 134/231/10 130/233/10 129/234/10
f 131/235/11 135/230/11 133/232/11 129/236/11
f 136/229/12 132/237/12 130/238/12 134/231/12
f 137/239/7 138/240/7 140/241/7 139/242/7
f 139/242/8 140/241/8 144/243/8 143/244/8
f 143/244/9 144/243/9 142/245/9 141/246/9
f 141/246/10 142/245/10 138/247/10 137/248/10
f 139/249/11 143/244/11 141/246/11 137/250/11
f 144/243/12 140/251/12 138/252/12 142/245/12
f 145/253/13 146/254/13 148/255/13 147/256/13
f 147/256/12 148/255/12 152/257/12 151/258/12
f 151/258/14 152/257/14 150/259/14 149/260/14
f 149/260/11 150/259/11 146/261/11 145/262/11
f 147/263/15 151/258/15 149/260/15 145/264/15
f 152/257/16 148/265/16 146/266/16 150/259/16
f 153/267/13 154/268/13 156/269/13 155/270/13
f 155/270/12 156/269/12 160/271/12 159/272/12
f 159/272/14 160/271/14 158/273/14 157/274/14
f 157/274/11 158/273/11 154/275/11 153/276/11
f 155/277/15 159/272/15 157/274/15 153/278/15
f 160/271/16 156/279/16 154/280/16 158/273/16
